<svg width="73" height="75" viewBox="0 0 73 75" fill="none" xmlns="http://www.w3.org/2000/svg">
<g id="icons8-clock 1">
<path id="Vector" d="M36.5698 3C18.4301 3 3.67444 18.4755 3.67444 37.5C3.67444 56.5245 18.4301 72 36.5698 72C54.7094 72 69.4651 56.5245 69.4651 37.5C69.4651 18.4755 54.7094 3 36.5698 3ZM36.5698 42C35.909 42 35.2897 41.8305 34.7305 41.55L26.1391 50.5605C25.8602 50.853 25.4941 51 25.1279 51C24.7618 51 24.3956 50.853 24.1168 50.5605C23.5575 49.974 23.5575 49.026 24.1168 48.4395L32.7082 39.429C32.4407 38.8425 32.2791 38.193 32.2791 37.5C32.2791 35.544 33.4762 33.8955 35.1396 33.276V12C35.1396 11.1705 35.7789 10.5 36.5698 10.5C37.3607 10.5 38 11.1705 38 12V33.276C39.6634 33.8955 40.8605 35.544 40.8605 37.5C40.8605 39.9855 38.9397 42 36.5698 42Z" fill="#0092D3"/>
</g>
</svg>
